<?xml version="1.0" encoding="utf-8"?>
<svg xmlns="http://www.w3.org/2000/svg" fill="none" height="61" viewBox="0 0 60 61" width="60">
<g id="solar:history-outline">
<path clip-rule="evenodd" d="M12.879 13.3868C22.6098 3.66876 38.4305 3.77133 48.2204 13.5637C58.0154 23.3587 58.1179 39.1871 48.3845 48.918C38.6536 58.6489 22.8252 58.5489 13.0302 48.7539C10.2751 46.0101 8.19338 42.665 6.94856 38.9813C5.70375 35.2976 5.32971 31.3755 5.85579 27.5229C5.92482 27.0173 6.19187 26.5598 6.59821 26.2511C7.00454 25.9423 7.51687 25.8077 8.02249 25.8767C8.5281 25.9457 8.98559 26.2128 9.29431 26.6191C9.60303 27.0255 9.73768 27.5378 9.66866 28.0434C9.22209 31.3083 9.53868 34.6323 10.5936 37.7543C11.6484 40.8762 13.4129 43.711 15.7482 46.0359C24.0688 54.354 37.4613 54.4027 45.6665 46.2C53.8692 37.9948 53.8204 24.6023 45.5024 16.2817C37.1869 7.96881 23.8022 7.91496 15.5969 16.1074L17.5149 16.1151C17.7674 16.1162 18.0173 16.1671 18.2502 16.2649C18.483 16.3626 18.6944 16.5053 18.8721 16.6847C19.0499 16.8641 19.1905 17.0767 19.2861 17.3105C19.3816 17.5443 19.4302 17.7946 19.429 18.0471C19.4278 18.2997 19.3769 18.5495 19.2792 18.7824C19.1815 19.0153 19.0388 19.2266 18.8594 19.4043C18.68 19.5821 18.4673 19.7227 18.2336 19.8183C17.9998 19.9139 17.7495 19.9624 17.497 19.9613L10.9687 19.9305C10.4617 19.9278 9.97639 19.725 9.61817 19.3663C9.25995 19.0076 9.05785 18.522 9.05583 18.0151L9.0225 11.4919C9.02115 11.2394 9.06956 10.989 9.16496 10.7552C9.26036 10.5214 9.40088 10.3086 9.57851 10.1291C9.75613 9.94956 9.96738 9.80677 10.2002 9.70888C10.433 9.611 10.6828 9.55992 10.9353 9.55857C11.1879 9.55722 11.4382 9.60563 11.6721 9.70103C11.9059 9.79643 12.1187 9.93696 12.2982 10.1146C12.4777 10.2922 12.6205 10.5035 12.7184 10.7363C12.8163 10.9691 12.8673 11.2189 12.8687 11.4714L12.879 13.3894V13.3868ZM30.6227 18.9766C31.1328 18.9766 31.6219 19.1792 31.9826 19.5399C32.3432 19.9005 32.5458 20.3897 32.5458 20.8997V30.3614L38.3946 36.2076C38.5784 36.3849 38.725 36.597 38.8259 36.8316C38.9268 37.0662 38.98 37.3185 38.9823 37.5739C38.9846 37.8292 38.9361 38.0825 38.8395 38.3189C38.7429 38.5552 38.6002 38.77 38.4198 38.9507C38.2393 39.1313 38.0246 39.2742 37.7883 39.371C37.552 39.4678 37.2988 39.5166 37.0435 39.5145C36.7881 39.5124 36.5358 39.4595 36.3011 39.3588C36.0664 39.2581 35.8541 39.1117 35.6767 38.9281L28.7022 31.9537V20.9023C28.7022 20.3923 28.9048 19.9031 29.2655 19.5425C29.6261 19.1818 30.1153 18.9792 30.6253 18.9792L30.6227 18.9766Z" fill="#0D0D0D" fill-rule="evenodd" id="Vector"/>
</g>
</svg>