<?xml version="1.0" encoding="utf-8"?>
<svg xmlns="http://www.w3.org/2000/svg" fill="none" height="61" viewBox="0 0 60 61" width="60">
<g id="solar:file-smile-outline">
<path clip-rule="evenodd" d="M30.6394 7.08566C29.4627 6.88613 27.8562 6.87078 24.9603 6.87078C20.0564 6.87078 16.5696 6.8759 13.9296 7.22892C11.3408 7.57427 9.85453 8.22659 8.77244 9.30613C7.69034 10.3882 7.04058 11.8719 6.69523 14.4454C6.3422 17.0752 6.33709 20.5389 6.33709 25.4198V35.6524C6.33709 40.5282 6.3422 43.9919 6.69523 46.6217C7.04058 49.1952 7.69034 50.6789 8.77244 51.7636C9.85453 52.8431 11.3383 53.4929 13.9117 53.8382C16.5415 54.1938 20.0052 54.1964 24.8836 54.1964H35.1162C39.9945 54.1964 43.4608 54.1912 46.0906 53.8382C48.6615 53.4929 50.1452 52.8431 51.2273 51.761C52.3094 50.6789 52.9592 49.1952 53.3045 46.6217C53.6576 43.9945 53.6627 40.5282 53.6627 35.6498V34.5319C53.6627 30.6026 53.6371 28.7403 53.2176 27.3359H45.2106C42.3122 27.3359 39.9459 27.3359 38.0734 27.0852C36.1215 26.8217 34.428 26.2538 33.0748 24.9005C31.7215 23.5473 31.1536 21.8564 30.8901 19.8994C30.6394 18.0319 30.6394 15.6631 30.6394 12.7622V7.08566ZM34.4766 9.07078V12.6266C34.4766 15.6964 34.4817 17.8043 34.6941 19.3878C34.8987 20.9175 35.2671 21.6671 35.7889 22.1864C36.3083 22.7082 37.0578 23.0766 38.5876 23.2812C40.171 23.4936 42.2789 23.4987 45.3487 23.4987H50.5162C49.5345 22.5639 48.5367 21.6463 47.5231 20.7461L37.3955 11.6315C36.44 10.7581 35.4669 9.9044 34.4766 9.07078ZM25.3313 3.03357C28.8743 3.03357 31.1638 3.03357 33.2692 3.83938C35.3745 4.64776 37.068 6.17241 39.6901 8.53357L39.9638 8.77915L50.089 17.8938L50.4087 18.1803C53.4376 20.9047 55.3971 22.6673 56.4485 25.031C57.5024 27.3947 57.5024 30.0296 57.4999 34.1022V35.7931C57.4999 40.495 57.4999 44.2196 57.1085 47.1333C56.7043 50.1315 55.855 52.5592 53.9415 54.4752C52.0255 56.3887 49.5978 57.238 46.5996 57.6422C43.6834 58.0336 39.9613 58.0336 35.2594 58.0336H24.7403C20.0385 58.0336 16.3138 58.0336 13.4001 57.6422C10.402 57.238 7.9743 56.3887 6.05825 54.4752C4.14476 52.5592 3.29546 50.1315 2.89127 47.1333C2.49988 44.2171 2.49988 40.495 2.49988 35.7931V25.274C2.49988 20.5722 2.49988 16.8475 2.89127 13.9338C3.29546 10.9357 4.14476 8.50799 6.05825 6.59194C7.97685 4.67589 10.4096 3.82915 13.4206 3.42496C16.3471 3.03357 20.0896 3.03357 24.8171 3.03357H25.3313Z" fill="#0D0D0D" fill-rule="evenodd" id="Vector"/>
<path d="M45 36.7836C45 38.8561 43.88 40.5336 42.5 40.5336C41.12 40.5336 40 38.8561 40 36.7836C40 34.7136 41.12 33.0336 42.5 33.0336C43.88 33.0336 45 34.7136 45 36.7836Z" fill="#0D0D0D" id="Vector_2"/>
<path clip-rule="evenodd" d="M20.94 43.2436C21.2158 42.8299 21.6447 42.5427 22.1323 42.4452C22.6199 42.3476 23.1263 42.4478 23.54 42.7236C25.453 43.9991 27.7008 44.6797 30 44.6797C32.2992 44.6797 34.547 43.9991 36.46 42.7236C36.6648 42.5838 36.8953 42.486 37.1381 42.4359C37.381 42.3857 37.6313 42.3843 37.8748 42.4316C38.1182 42.4789 38.3498 42.574 38.5562 42.7114C38.7626 42.8488 38.9397 43.0258 39.0773 43.2321C39.2148 43.4384 39.3101 43.67 39.3575 43.9133C39.405 44.1567 39.4037 44.4071 39.3537 44.65C39.3037 44.8928 39.2061 45.1234 39.0664 45.3283C38.9267 45.5332 38.7478 45.7083 38.54 45.8436C36.011 47.5297 33.0395 48.4294 30 48.4294C26.9605 48.4294 23.989 47.5297 21.46 45.8436C21.0463 45.5677 20.7591 45.1389 20.6616 44.6513C20.5641 44.1637 20.6642 43.6573 20.94 43.2436Z" fill="#0D0D0D" fill-rule="evenodd" id="Vector_3"/>
<path d="M20 36.7836C20 38.8561 18.88 40.5336 17.5 40.5336C16.12 40.5336 15 38.8561 15 36.7836C15 34.7136 16.12 33.0336 17.5 33.0336C18.88 33.0336 20 34.7136 20 36.7836Z" fill="#0D0D0D" id="Vector_4"/>
</g>
</svg>