<?xml version="1.0" encoding="utf-8"?>
<svg xmlns="http://www.w3.org/2000/svg" fill="none" height="61" viewBox="0 0 60 61" width="60">
<g id="icon-delivery">
<path clip-rule="evenodd" d="M1.20361 14.4185C1.20361 13.7281 1.76326 13.1685 2.45361 13.1685H36.2747C37.6554 13.1685 38.7747 14.2877 38.7747 15.6685V20.7121H51.6928C52.6733 20.7121 53.5633 21.2853 53.9689 22.1781L58.5724 32.3114C58.7199 32.6362 58.7962 32.9887 58.7962 33.3454V40.7148C58.7962 42.0956 57.6769 43.2148 56.2962 43.2148H50.7986C50.2246 45.8916 47.8451 47.8984 44.9969 47.8984C42.1488 47.8984 39.7693 45.8916 39.1953 43.2148H37.5247C37.3415 43.2148 37.1676 43.1754 37.0108 43.1046C36.7781 43.1762 36.5309 43.2148 36.2747 43.2148H25.791C25.217 45.8916 22.8375 47.8984 19.9893 47.8984C17.1411 47.8984 14.7616 45.8916 14.1877 43.2148H8.78719C7.40648 43.2148 6.28719 42.0955 6.28719 40.7148V28.1916C6.28719 27.5012 6.84683 26.9416 7.53719 26.9416C8.22754 26.9416 8.78719 27.5012 8.78719 28.1916V40.7148H14.1877C14.7617 38.0381 17.1412 36.0313 19.9893 36.0313C22.8375 36.0313 25.2169 38.0381 25.7909 40.7148H36.2747V15.6685H2.45361C1.76326 15.6685 1.20361 15.1088 1.20361 14.4185ZM39.1953 40.7148C39.7693 38.0381 42.1488 36.0313 44.9969 36.0313C47.8451 36.0313 50.2246 38.0381 50.7986 40.7148H56.2962V33.3454L51.6928 23.2121H38.7747V40.7148L39.1953 40.7148ZM48.4305 41.9648C48.4305 43.8611 46.8932 45.3984 44.9969 45.3984C43.1007 45.3984 41.5634 43.8611 41.5634 41.9648C41.5634 40.0686 43.1007 38.5313 44.9969 38.5313C46.8932 38.5313 48.4305 40.0686 48.4305 41.9648ZM19.9893 45.3984C21.8856 45.3984 23.4228 43.8611 23.4228 41.9648C23.4228 40.0686 21.8856 38.5313 19.9893 38.5313C18.093 38.5313 16.5558 40.0686 16.5558 41.9648C16.5558 43.8611 18.093 45.3984 19.9893 45.3984ZM5.02319 20.7737C4.33284 20.7737 3.77319 21.3334 3.77319 22.0237C3.77319 22.7141 4.33284 23.2737 5.02319 23.2737H15.0058C15.6962 23.2737 16.2558 22.7141 16.2558 22.0237C16.2558 21.3334 15.6962 20.7737 15.0058 20.7737H5.02319Z" fill="#0D0D0D" fill-rule="evenodd" id="Union"/>
</g>
</svg>